<mxfile host="app.diagrams.net" agent="Mozilla/5.0 (Windows NT 10.0; Win64; x64) AppleWebKit/537.36 (KHTML, like Gecko) Chrome/134.0.0.0 Safari/537.36" version="26.2.4">
  <diagram name="Страница — 1" id="3lagEggiWrBapjPdTss2">
    <mxGraphModel dx="1105" dy="1236" grid="0" gridSize="10" guides="1" tooltips="1" connect="1" arrows="1" fold="1" page="0" pageScale="1" pageWidth="827" pageHeight="1169" math="0" shadow="0">
      <root>
        <mxCell id="0" />
        <mxCell id="1" parent="0" />
        <mxCell id="qddge7Fq89VXhhM6PJzp-1" value="Модуль управления фермами" style="html=1;dropTarget=0;whiteSpace=wrap;" vertex="1" parent="1">
          <mxGeometry x="-98" y="-8" width="180" height="90" as="geometry" />
        </mxCell>
        <mxCell id="qddge7Fq89VXhhM6PJzp-2" value="" style="shape=module;jettyWidth=8;jettyHeight=4;" vertex="1" parent="qddge7Fq89VXhhM6PJzp-1">
          <mxGeometry x="1" width="20" height="20" relative="1" as="geometry">
            <mxPoint x="-27" y="7" as="offset" />
          </mxGeometry>
        </mxCell>
        <mxCell id="qddge7Fq89VXhhM6PJzp-3" value="Модуль аукциона" style="html=1;dropTarget=0;whiteSpace=wrap;" vertex="1" parent="1">
          <mxGeometry x="167" y="-8" width="180" height="90" as="geometry" />
        </mxCell>
        <mxCell id="qddge7Fq89VXhhM6PJzp-4" value="" style="shape=module;jettyWidth=8;jettyHeight=4;" vertex="1" parent="qddge7Fq89VXhhM6PJzp-3">
          <mxGeometry x="1" width="20" height="20" relative="1" as="geometry">
            <mxPoint x="-27" y="7" as="offset" />
          </mxGeometry>
        </mxCell>
        <mxCell id="qddge7Fq89VXhhM6PJzp-5" value="Модуль отчетов" style="html=1;dropTarget=0;whiteSpace=wrap;" vertex="1" parent="1">
          <mxGeometry x="441" y="-8" width="180" height="90" as="geometry" />
        </mxCell>
        <mxCell id="qddge7Fq89VXhhM6PJzp-6" value="" style="shape=module;jettyWidth=8;jettyHeight=4;" vertex="1" parent="qddge7Fq89VXhhM6PJzp-5">
          <mxGeometry x="1" width="20" height="20" relative="1" as="geometry">
            <mxPoint x="-27" y="7" as="offset" />
          </mxGeometry>
        </mxCell>
        <mxCell id="qddge7Fq89VXhhM6PJzp-9" value="Пользовательский интерфейс" style="html=1;dropTarget=0;whiteSpace=wrap;" vertex="1" parent="1">
          <mxGeometry x="317" y="237" width="180" height="90" as="geometry" />
        </mxCell>
        <mxCell id="qddge7Fq89VXhhM6PJzp-10" value="" style="shape=module;jettyWidth=8;jettyHeight=4;" vertex="1" parent="qddge7Fq89VXhhM6PJzp-9">
          <mxGeometry x="1" width="20" height="20" relative="1" as="geometry">
            <mxPoint x="-27" y="7" as="offset" />
          </mxGeometry>
        </mxCell>
        <mxCell id="qddge7Fq89VXhhM6PJzp-11" value="" style="image;html=1;image=img/lib/clip_art/computers/Database_128x128.png" vertex="1" parent="1">
          <mxGeometry x="52" y="242" width="80" height="80" as="geometry" />
        </mxCell>
        <mxCell id="qddge7Fq89VXhhM6PJzp-12" value="" style="endArrow=classic;html=1;rounded=0;fontSize=12;startSize=8;endSize=8;curved=1;exitX=0;exitY=0;exitDx=0;exitDy=0;entryX=0.5;entryY=1;entryDx=0;entryDy=0;" edge="1" parent="1" source="qddge7Fq89VXhhM6PJzp-9" target="qddge7Fq89VXhhM6PJzp-3">
          <mxGeometry width="50" height="50" relative="1" as="geometry">
            <mxPoint x="187" y="225" as="sourcePoint" />
            <mxPoint x="237" y="175" as="targetPoint" />
          </mxGeometry>
        </mxCell>
        <mxCell id="qddge7Fq89VXhhM6PJzp-13" value="" style="endArrow=classic;html=1;rounded=0;fontSize=12;startSize=8;endSize=8;curved=1;" edge="1" parent="1" target="qddge7Fq89VXhhM6PJzp-11">
          <mxGeometry width="50" height="50" relative="1" as="geometry">
            <mxPoint x="255" y="84" as="sourcePoint" />
            <mxPoint x="237" y="175" as="targetPoint" />
          </mxGeometry>
        </mxCell>
        <mxCell id="qddge7Fq89VXhhM6PJzp-14" value="" style="endArrow=classic;html=1;rounded=0;fontSize=12;startSize=8;endSize=8;curved=1;exitX=0;exitY=1;exitDx=0;exitDy=0;entryX=0.975;entryY=0.1;entryDx=0;entryDy=0;entryPerimeter=0;" edge="1" parent="1" source="qddge7Fq89VXhhM6PJzp-5" target="qddge7Fq89VXhhM6PJzp-11">
          <mxGeometry width="50" height="50" relative="1" as="geometry">
            <mxPoint x="187" y="225" as="sourcePoint" />
            <mxPoint x="237" y="175" as="targetPoint" />
          </mxGeometry>
        </mxCell>
        <mxCell id="qddge7Fq89VXhhM6PJzp-15" value="" style="endArrow=classic;startArrow=classic;html=1;rounded=0;fontSize=12;startSize=8;endSize=8;curved=1;exitX=0.461;exitY=1;exitDx=0;exitDy=0;exitPerimeter=0;entryX=1;entryY=0.75;entryDx=0;entryDy=0;" edge="1" parent="1" source="qddge7Fq89VXhhM6PJzp-1" target="qddge7Fq89VXhhM6PJzp-1">
          <mxGeometry width="50" height="50" relative="1" as="geometry">
            <mxPoint x="187" y="225" as="sourcePoint" />
            <mxPoint x="-15" y="168" as="targetPoint" />
            <Array as="points">
              <mxPoint x="136" y="135" />
            </Array>
          </mxGeometry>
        </mxCell>
        <mxCell id="qddge7Fq89VXhhM6PJzp-16" value="Интерфейс хранения данных" style="html=1;whiteSpace=wrap;" vertex="1" parent="1">
          <mxGeometry x="-58" y="158" width="110" height="50" as="geometry" />
        </mxCell>
      </root>
    </mxGraphModel>
  </diagram>
</mxfile>
